<svg width="50" height="51" viewBox="0 0 50 51" fill="none" xmlns="http://www.w3.org/2000/svg">
<path d="M49.98 26.0668C49.98 23.9702 49.8099 22.4402 49.4417 20.8535H25.5V30.3167H39.5532C39.27 32.6685 37.74 36.2102 34.3399 38.59L34.2923 38.9068L41.8622 44.7712L42.3866 44.8235C47.2032 40.3751 49.98 33.8301 49.98 26.0668Z" fill="#4285F4"/>
<path d="M25.5 51.0006C32.3849 51.0006 38.1648 48.7338 42.3866 44.8239L34.3399 38.5905C32.1866 40.0921 29.2965 41.1405 25.5 41.1405C18.7567 41.1405 13.0334 36.6923 10.9932 30.5439L10.6941 30.5693L2.82285 36.661L2.71991 36.9472C6.9132 45.2771 15.5265 51.0006 25.5 51.0006Z" fill="#34A853"/>
<path d="M10.9932 30.5438C10.4549 28.9572 10.1434 27.2571 10.1434 25.5005C10.1434 23.7437 10.4549 22.0438 10.9649 20.4571L10.9506 20.1192L2.9807 13.9297L2.71993 14.0537C0.991677 17.5104 0 21.3922 0 25.5005C0 29.6088 0.991677 33.4904 2.71993 36.9471L10.9932 30.5438Z" fill="#FBBC05"/>
<path d="M25.5 9.85993C30.2882 9.85993 33.5182 11.9283 35.3599 13.6567L42.5565 6.63C38.1367 2.52168 32.3849 0 25.5 0C15.5265 0 6.9132 5.72329 2.71991 14.0532L10.9649 20.4566C13.0334 14.3083 18.7567 9.85993 25.5 9.85993Z" fill="#EB4335"/>
</svg>
