<svg width="50" height="46" viewBox="0 0 50 46" fill="none" xmlns="http://www.w3.org/2000/svg">
<path d="M25 0C38.8071 0 50 8.73335 50 19.5094C50 30.2831 38.8071 39.0164 25 39.0164C23.6252 39.0171 22.2517 38.9296 20.8881 38.7542L10.3929 45.626C9.2 46.2576 8.77857 46.1885 9.26905 44.6416L11.3929 35.8749C4.53571 32.3949 0 26.3645 0 19.5094C0 8.73573 11.1929 0 25 0ZM39.0643 19.2115L42.5643 15.8173C42.7662 15.6073 42.8789 15.3271 42.8786 15.0356C42.8782 14.7441 42.7649 14.4641 42.5624 14.2546C42.3599 14.0451 42.0842 13.9225 41.7932 13.9125C41.5022 13.9026 41.2187 14.0061 41.0024 14.2012L36.4119 18.6489V14.9735C36.4119 14.6751 36.2935 14.389 36.0827 14.178C35.872 13.967 35.5861 13.8485 35.2881 13.8485C34.99 13.8485 34.7042 13.967 34.4934 14.178C34.2827 14.389 34.1643 14.6751 34.1643 14.9735V21.0682C34.1222 21.2421 34.1222 21.4235 34.1643 21.5974V25.0273C34.1643 25.3257 34.2827 25.6119 34.4934 25.8228C34.7042 26.0338 34.99 26.1524 35.2881 26.1524C35.5861 26.1524 35.872 26.0338 36.0827 25.8228C36.2935 25.6119 36.4119 25.3257 36.4119 25.0273V21.7785L37.4286 20.7941L40.8286 25.6399C40.9135 25.7609 41.0213 25.8639 41.146 25.9432C41.2707 26.0224 41.4097 26.0763 41.5552 26.1018C41.7007 26.1272 41.8497 26.1237 41.9939 26.0915C42.138 26.0593 42.2744 25.999 42.3952 25.914C42.5161 25.829 42.619 25.721 42.6982 25.5962C42.7774 25.4714 42.8312 25.3322 42.8566 25.1866C42.882 25.0409 42.8786 24.8917 42.8464 24.7474C42.8142 24.6031 42.7539 24.4666 42.669 24.3456L39.0643 19.2091V19.2115ZM32.0214 23.7974H28.5452V15.0092C28.5319 14.7201 28.4078 14.4473 28.1988 14.2474C27.9897 14.0475 27.7117 13.936 27.4226 13.936C27.1335 13.936 26.8555 14.0475 26.6465 14.2474C26.4374 14.4473 26.3133 14.7201 26.3 15.0092V24.9224C26.3 25.5422 26.8 26.0475 27.4214 26.0475H32.0214C32.3195 26.0475 32.6053 25.929 32.8161 25.718C33.0268 25.507 33.1452 25.2208 33.1452 24.9224C33.1452 24.6241 33.0268 24.3379 32.8161 24.1269C32.6053 23.9159 32.3195 23.7974 32.0214 23.7974ZM18.0762 21.1946L19.7333 17.1258L21.2524 21.1946H18.0762ZM24.0833 22.3577L24.0881 22.3196C24.0875 22.0362 23.9794 21.7635 23.7857 21.5569L21.2952 14.8829C21.1908 14.5649 20.992 14.2863 20.7252 14.0844C20.4585 13.8825 20.1365 13.7669 19.8024 13.7531C19.4658 13.7516 19.1368 13.8528 18.859 14.0431C18.5813 14.2334 18.368 14.5039 18.2476 14.8186L14.2929 24.5315C14.237 24.6683 14.2087 24.8148 14.2094 24.9625C14.2101 25.1103 14.2399 25.2565 14.2971 25.3927C14.3542 25.5289 14.4376 25.6526 14.5425 25.7565C14.6474 25.8605 14.7717 25.9428 14.9083 25.9986C15.045 26.0545 15.1913 26.0829 15.3389 26.0822C15.4865 26.0814 15.6325 26.0516 15.7685 25.9944C15.9046 25.9372 16.0281 25.8537 16.132 25.7487C16.2358 25.6437 16.318 25.5193 16.3738 25.3825L17.1595 23.4446H22.0881L22.8 25.3515C22.8484 25.494 22.9249 25.6254 23.0249 25.7378C23.125 25.8502 23.2465 25.9413 23.3824 26.0059C23.5182 26.0704 23.6657 26.1069 23.8159 26.1134C23.9662 26.1198 24.1162 26.096 24.257 26.0434C24.3979 25.9907 24.5268 25.9103 24.6361 25.8069C24.7454 25.7035 24.8328 25.5791 24.8932 25.4413C24.9536 25.3034 24.9857 25.1548 24.9877 25.0043C24.9897 24.8537 24.9615 24.7043 24.9048 24.5649L24.0833 22.3577ZM16.1738 15.0212C16.1738 14.7232 16.0557 14.4374 15.8455 14.2265C15.6353 14.0156 15.35 13.8968 15.0524 13.8961H7.32619C7.02814 13.8961 6.74229 14.0147 6.53154 14.2256C6.32078 14.4366 6.20238 14.7228 6.20238 15.0212C6.20238 15.3195 6.32078 15.6057 6.53154 15.8167C6.74229 16.0277 7.02814 16.1462 7.32619 16.1462H10.0881V25.0512C10.0881 25.3495 10.2065 25.6357 10.4173 25.8467C10.628 26.0577 10.9139 26.1762 11.2119 26.1762C11.51 26.1762 11.7958 26.0577 12.0066 25.8467C12.2173 25.6357 12.3357 25.3495 12.3357 25.0512V16.1462H15.05C15.3481 16.1462 15.6339 16.0277 15.8447 15.8167C16.0554 15.6057 16.1738 15.3195 16.1738 15.0212Z" fill="black"/>
</svg>
